<svg width="143" height="143" viewBox="0 0 143 143" fill="none" xmlns="http://www.w3.org/2000/svg">
<rect x="13" y="13" width="117" height="117" rx="23" stroke="#181818" stroke-width="6"/>
<path d="M25.692 86.72C25.692 84.272 26.7 82.28 28.716 80.744C30.756 79.208 33.42 78.44 36.708 78.44C40.02 78.44 42.72 79.244 44.808 80.852C46.92 82.46 47.976 84.14 47.976 85.892C47.976 86.108 47.892 86.3 47.724 86.468C47.58 86.612 47.412 86.684 47.22 86.684H40.02C39.468 86.684 38.964 86.48 38.508 86.072C38.052 85.664 37.44 85.46 36.672 85.46C35.52 85.46 34.944 85.796 34.944 86.468C34.944 86.828 35.22 87.128 35.772 87.368C36.348 87.608 37.404 87.824 38.94 88.016C42.516 88.472 45.06 89.312 46.572 90.536C48.108 91.736 48.876 93.572 48.876 96.044C48.876 98.492 47.748 100.496 45.492 102.056C43.26 103.592 40.332 104.36 36.708 104.36C33.084 104.36 30.24 103.616 28.176 102.128C26.112 100.64 25.08 98.828 25.08 96.692C25.08 96.476 25.152 96.296 25.296 96.152C25.464 95.984 25.656 95.9 25.872 95.9H32.712C33.216 95.9 33.768 96.14 34.368 96.62C34.992 97.1 35.844 97.34 36.924 97.34C38.724 97.34 39.624 97.004 39.624 96.332C39.624 95.9 39.3 95.576 38.652 95.36C38.004 95.12 36.78 94.88 34.98 94.64C28.788 93.824 25.692 91.184 25.692 86.72ZM68.0893 78.8H75.1453C75.4093 78.8 75.6373 78.896 75.8293 79.088C76.0213 79.28 76.1173 79.508 76.1173 79.772V103.028C76.1173 103.292 76.0213 103.52 75.8293 103.712C75.6373 103.904 75.4093 104 75.1453 104H68.0893C67.8253 104 67.5973 103.904 67.4053 103.712C67.2133 103.52 67.1173 103.292 67.1173 103.028V95.252H61.2853V103.028C61.2853 103.292 61.1893 103.52 60.9973 103.712C60.8053 103.904 60.5773 104 60.3133 104H53.2573C52.9933 104 52.7653 103.916 52.5733 103.748C52.3813 103.556 52.2853 103.316 52.2853 103.028V79.772C52.2853 79.508 52.3813 79.28 52.5733 79.088C52.7653 78.896 52.9933 78.8 53.2573 78.8H60.3133C60.5773 78.8 60.8053 78.896 60.9973 79.088C61.1893 79.28 61.2853 79.508 61.2853 79.772V87.332H67.1173V79.772C67.1173 79.508 67.2133 79.28 67.4053 79.088C67.5973 78.896 67.8253 78.8 68.0893 78.8ZM89.113 104H81.769C81.505 104 81.277 103.904 81.085 103.712C80.893 103.52 80.797 103.292 80.797 103.028V79.772C80.797 79.508 80.893 79.28 81.085 79.088C81.277 78.896 81.505 78.8 81.769 78.8H89.113C89.377 78.8 89.605 78.896 89.797 79.088C89.989 79.28 90.085 79.508 90.085 79.772V103.028C90.085 103.292 89.989 103.52 89.797 103.712C89.605 103.904 89.377 104 89.113 104ZM95.7261 78.8H106.454C109.91 78.8 112.61 79.544 114.554 81.032C116.498 82.52 117.47 84.716 117.47 87.62C117.47 90.524 116.498 92.672 114.554 94.064C112.634 95.456 109.934 96.152 106.454 96.152H104.114V103.028C104.114 103.292 104.018 103.52 103.826 103.712C103.634 103.904 103.406 104 103.142 104H95.7261C95.4621 104 95.2341 103.904 95.0421 103.712C94.8501 103.52 94.7541 103.292 94.7541 103.028V79.772C94.7541 79.508 94.8501 79.28 95.0421 79.088C95.2341 78.896 95.4621 78.8 95.7261 78.8ZM103.934 85.496V89.492H106.454C106.886 89.492 107.27 89.336 107.606 89.024C107.942 88.688 108.11 88.22 108.11 87.62C108.11 87.02 107.978 86.516 107.714 86.108C107.45 85.7 107.03 85.496 106.454 85.496H103.934Z" fill="#181818"/>
<path d="M24.312 37.8H42.456C42.72 37.8 42.948 37.896 43.14 38.088C43.332 38.28 43.428 38.508 43.428 38.772V44.244C43.428 44.508 43.332 44.736 43.14 44.928C42.948 45.12 42.72 45.216 42.456 45.216H32.16V47.88H41.736C42 47.88 42.228 47.976 42.42 48.168C42.612 48.36 42.708 48.588 42.708 48.852V54.288C42.708 54.552 42.612 54.78 42.42 54.972C42.228 55.164 42 55.26 41.736 55.26H32.16V62.028C32.16 62.292 32.064 62.52 31.872 62.712C31.68 62.904 31.452 63 31.188 63H24.312C24.048 63 23.82 62.904 23.628 62.712C23.436 62.52 23.34 62.292 23.34 62.028V38.772C23.34 38.508 23.436 38.28 23.628 38.088C23.82 37.896 24.048 37.8 24.312 37.8ZM70.3951 61.812C70.4671 61.956 70.5031 62.112 70.5031 62.28C70.5031 62.448 70.4191 62.616 70.2511 62.784C70.1071 62.928 69.9271 63 69.7111 63H62.3311C61.5871 63 61.0711 62.676 60.7831 62.028L57.6871 55.152H56.2111V62.028C56.2111 62.292 56.1151 62.52 55.9231 62.712C55.7311 62.904 55.5031 63 55.2391 63H48.1831C47.9191 63 47.6911 62.904 47.4991 62.712C47.3071 62.52 47.2111 62.292 47.2111 62.028V38.772C47.2111 38.508 47.3071 38.28 47.4991 38.088C47.6911 37.896 47.9191 37.8 48.1831 37.8H58.8391C62.2951 37.8 64.9951 38.58 66.9391 40.14C68.8831 41.676 69.8551 43.896 69.8551 46.8C69.8551 49.68 68.5591 51.948 65.9671 53.604L70.3951 61.812ZM56.2111 44.496V48.312H58.8391C59.3671 48.312 59.7751 48.144 60.0631 47.808C60.3511 47.448 60.4951 47.004 60.4951 46.476C60.4951 45.948 60.3511 45.492 60.0631 45.108C59.7991 44.7 59.3911 44.496 58.8391 44.496H56.2111ZM82.5698 55.98H93.6578C93.9218 55.98 94.1498 56.076 94.3418 56.268C94.5338 56.46 94.6298 56.688 94.6298 56.952V62.028C94.6298 62.292 94.5338 62.52 94.3418 62.712C94.1498 62.904 93.9218 63 93.6578 63H74.9018C74.6378 63 74.4098 62.904 74.2178 62.712C74.0258 62.52 73.9298 62.292 73.9298 62.028V38.772C73.9298 38.508 74.0258 38.28 74.2178 38.088C74.4098 37.896 74.6378 37.8 74.9018 37.8H93.3698C93.6338 37.8 93.8618 37.896 94.0538 38.088C94.2458 38.28 94.3418 38.508 94.3418 38.772V43.848C94.3418 44.112 94.2458 44.34 94.0538 44.532C93.8618 44.724 93.6338 44.82 93.3698 44.82H82.5698V47.088H92.5778C92.8418 47.088 93.0698 47.184 93.2618 47.376C93.4538 47.568 93.5498 47.796 93.5498 48.06V52.74C93.5498 53.004 93.4538 53.232 93.2618 53.424C93.0698 53.616 92.8418 53.712 92.5778 53.712H82.5698V55.98ZM107.601 55.98H118.689C118.953 55.98 119.181 56.076 119.373 56.268C119.565 56.46 119.661 56.688 119.661 56.952V62.028C119.661 62.292 119.565 62.52 119.373 62.712C119.181 62.904 118.953 63 118.689 63H99.9331C99.6691 63 99.4411 62.904 99.2491 62.712C99.0571 62.52 98.9611 62.292 98.9611 62.028V38.772C98.9611 38.508 99.0571 38.28 99.2491 38.088C99.4411 37.896 99.6691 37.8 99.9331 37.8H118.401C118.665 37.8 118.893 37.896 119.085 38.088C119.277 38.28 119.373 38.508 119.373 38.772V43.848C119.373 44.112 119.277 44.34 119.085 44.532C118.893 44.724 118.665 44.82 118.401 44.82H107.601V47.088H117.609C117.873 47.088 118.101 47.184 118.293 47.376C118.485 47.568 118.581 47.796 118.581 48.06V52.74C118.581 53.004 118.485 53.232 118.293 53.424C118.101 53.616 117.873 53.712 117.609 53.712H107.601V55.98Z" fill="#181818"/>
</svg>
